<svg xmlns="http://www.w3.org/2000/svg" viewBox="0 0 654.58 140.11"><defs><style>.cls-1,.cls-2{fill:#fff;}.cls-2{fill-rule:evenodd;}</style></defs><title>logo_corona</title><g id="Layer_2" data-name="Layer 2"><g id="Layer_1-2" data-name="Layer 1"><path class="cls-1" d="M215.14,102c-2.8,1.35-9,2.9-16.9,2.9-20.68,0-33.25-13-33.25-32.86,0-21.45,15-34.4,34.89-34.4,7.83,0,13.33,1.64,15.75,2.9L213.11,50a32,32,0,0,0-12.75-2.51c-13.24,0-22.8,8.31-22.8,24,0,14.4,8.31,23.48,22.7,23.48a36.09,36.09,0,0,0,12.95-2.32Z"/><path class="cls-1" d="M266.06,79.87c0,17.29-12.18,25-24.16,25-13.24,0-23.58-9.08-23.58-24.25,0-15.46,10.15-24.93,24.35-24.93,14,0,23.38,9.86,23.38,24.16m-35.46.49c0,9.08,4.54,15.94,11.69,15.94,6.76,0,11.5-6.57,11.5-16.13,0-7.35-3.28-15.85-11.4-15.85-8.41,0-11.79,8.21-11.79,16"/><path class="cls-1" d="M273.88,71.94c0-6.38-.09-11-.38-15.17h10.24l.48,8.89h.29c2.32-6.57,7.83-10,12.94-10a12.32,12.32,0,0,1,2.8.29V67.1a19.13,19.13,0,0,0-3.57-.28c-5.61,0-9.57,3.58-10.63,9a20.41,20.41,0,0,0-.29,3.58v24.45H273.88Z"/><path class="cls-1" d="M350.22,79.87c0,17.29-12.17,25-24.16,25-13.23,0-23.58-9.08-23.58-24.25,0-15.46,10.14-24.93,24.35-24.93,14,0,23.39,9.86,23.39,24.16m-35.47.49c0,9.08,4.54,15.94,11.69,15.94,6.76,0,11.5-6.57,11.5-16.13,0-7.35-3.29-15.85-11.4-15.85-8.41,0-11.79,8.21-11.79,16"/><path class="cls-1" d="M358,70.78c0-5.41-.2-10-.39-14H368l.58,7.06h.29a17.26,17.26,0,0,1,15.07-8.12c8.21,0,16.71,5.31,16.71,20.19v27.93H388.77V77.26c0-6.76-2.52-11.89-9-11.89a10,10,0,0,0-9.27,7,11,11,0,0,0-.58,3.77v27.73H358Z"/><path class="cls-1" d="M447.91,92.53a62.86,62.86,0,0,0,.77,11.31H438l-.87-5.22h-.29c-2.8,3.67-7.73,6.28-13.91,6.28-9.47,0-14.79-6.86-14.79-14C408.1,79.09,418.63,73,436,73.1v-.78c0-3.09-1.25-8.21-9.57-8.21A24.89,24.89,0,0,0,413.8,67.6l-2.32-7.73c3.47-2.13,9.57-4.16,17-4.16,15.07,0,19.42,9.57,19.42,19.9Zm-11.59-11.7c-8.41-.09-16.43,1.65-16.43,8.8,0,4.64,3,6.76,6.76,6.76A9.76,9.76,0,0,0,436,89.91a7.93,7.93,0,0,0,.29-2.61Z"/><polygon class="cls-1" points="477.07 38.7 488.96 38.7 488.96 93.88 515.73 93.88 515.73 103.83 477.07 103.83 477.07 38.7"/><path class="cls-1" d="M558.83,92.53a64,64,0,0,0,.77,11.31H548.88L548,98.61h-.29c-2.8,3.67-7.73,6.28-13.92,6.28-9.47,0-14.79-6.86-14.79-14C519,79.09,529.55,73,546.94,73.1v-.78c0-3.09-1.25-8.21-9.57-8.21a24.91,24.91,0,0,0-12.66,3.48l-2.31-7.73c3.48-2.13,9.56-4.16,17-4.16,15.08,0,19.42,9.57,19.42,19.9Zm-11.6-11.7c-8.4-.09-16.43,1.65-16.43,8.8,0,4.64,3,6.76,6.77,6.76a9.77,9.77,0,0,0,9.38-6.48,8.12,8.12,0,0,0,.29-2.61Z"/><path class="cls-1" d="M569.45,35.22h11.89v28h.19c2.9-4.54,8-7.53,15.08-7.53,11.5,0,19.71,9.57,19.61,23.86,0,16.91-10.72,25.32-21.36,25.32-6.09,0-11.5-2.32-14.88-8.11h-.2l-.58,7.05H569.06c.19-3.19.38-8.41.38-13.24Zm11.89,49.19a13.6,13.6,0,0,0,.29,2.8,10.85,10.85,0,0,0,10.54,8.31c7.44,0,12-5.89,12-15.45,0-8.31-4-15.08-11.89-15.08a11,11,0,0,0-10.53,8.69,14.21,14.21,0,0,0-.39,3.09Z"/><path class="cls-1" d="M623.56,92.81a25.85,25.85,0,0,0,12,3.47c5.23,0,7.54-2.22,7.54-5.31s-1.94-4.74-7.73-6.87C626.17,81,622.4,76,622.4,70.4c0-8.31,6.87-14.69,17.78-14.69a27.18,27.18,0,0,1,12.56,2.8l-2.41,8.31a20.85,20.85,0,0,0-10-2.71c-4.25,0-6.56,2.12-6.56,5s2.22,4.35,8.2,6.57c8.6,3,12.47,7.34,12.57,14.3,0,8.6-6.67,14.78-19.14,14.78a30.42,30.42,0,0,1-14.3-3.28Z"/><path class="cls-1" d="M70.06,140.11a70.05,70.05,0,1,1,70.05-70.06,70.14,70.14,0,0,1-70.05,70.06m0-133.41A63.35,63.35,0,1,0,133.4,70.05,63.42,63.42,0,0,0,70.06,6.7"/><path class="cls-2" d="M96.35,106.23c-3.5,5.46-17.1,9.78-27.31,10.69-6.59.6-13.44-1.85-16.9-4.65a13.37,13.37,0,0,1,1.19-14.22c13-5.5,36.29-2,43,8.17"/><path class="cls-2" d="M112.59,56.24c4.1,5,4,19.27,1.72,29.27-1.48,6.44-5.91,12.19-9.65,14.62a13.37,13.37,0,0,1-13.15-5.51c-1.19-14.09,9.34-35.11,21.07-38.37"/><path class="cls-2" d="M70.06,25.33c6-2.36,19.56,2.14,28.37,7.4,5.69,3.4,9.77,9.39,10.94,13.7A13.4,13.4,0,0,1,100,57.22C86.27,54,69.53,37.49,70.06,25.33"/><path class="cls-2" d="M27.53,56.24c-.38-6.48,8.08-18,15.82-24.7,5-4.36,11.94-6.39,16.39-6.16a13.36,13.36,0,0,1,7.39,12.18c-7.31,12.1-28.2,22.91-39.6,18.68"/><path class="cls-2" d="M43.77,106.23C37.5,104.58,29.19,93,25.17,83.55c-2.61-6.08-2.38-13.34-.79-17.5A13.37,13.37,0,0,1,38.26,62.8c9.24,10.7,13.08,33.91,5.51,43.44"/></g></g></svg>