<svg xmlns="http://www.w3.org/2000/svg" viewBox="0 0 82 82"><defs><style>.cls-1{fill:#2c1809;}.cls-2{fill:none;}</style></defs><title>logo_hasbro_text_black</title><g id="Layer_2" data-name="Layer 2"><g id="svg8694"><path class="cls-1" d="M26.07,41.71l-.2-.48a43.32,43.32,0,0,1-1.78-8.29l5.25-.78c-2.44,2.53-3.28,4.71-2.48,6.57a2.67,2.67,0,0,0,1.31,1.46,3,3,0,0,0,1.91.16,7.2,7.2,0,0,0,4.28-2.94c.72,2.1,2.23,2.81,4.52,2.09l.17-.15c0-.1,0-.21-.21-.31a2.59,2.59,0,0,1-1.28-2.48,15.83,15.83,0,0,1,.28-3.34l.35-2c0-.59-.32-.8-.94-.65a5.73,5.73,0,0,0-1.48.6,8.77,8.77,0,0,0-1,.62,2.9,2.9,0,0,0-.45,1,11.37,11.37,0,0,1-3.05,5.35c-.94.86-1.45.94-1.54.21a4.2,4.2,0,0,1,.54-2.21,12.79,12.79,0,0,1,4-5,8.37,8.37,0,0,1,1.68-1l.2-.26c0-.15-.13-.25-.38-.31l-1.6-.07a67.58,67.58,0,0,0-10.34,1.5l-.2-3.46a32.66,32.66,0,0,1,.2-5.73.69.69,0,0,0-.25-.78,1.13,1.13,0,0,0-.78-.21l-.39,0h0a7.72,7.72,0,0,0-3.09,1c-.19.1-.25.19-.19.26l.15.12.22.3a4.64,4.64,0,0,1,.36,2.08l.66,7.18L16,33c-.3-2.09-.5-4-.65-5.69l-.29-4c0-.9-.25-1.34-.86-1.34a7.36,7.36,0,0,0-2.27.54A10,10,0,0,0,9,24c-.24.19-.27.34-.15.44l.19.1.13.05a1.07,1.07,0,0,1,.71.89c.47,2.37.87,4.49,1.16,6.4l-.09,0a36.65,36.65,0,0,0-8.77,3.26,1.94,1.94,0,0,0-.92,1.45v.19c.12,1,1.28,1,1.28,1A14.35,14.35,0,0,0,7.49,37l4.13-1.06,1,6.44c.22,1,.45,1.66.7,1.81l.5.25,1.31-.08c1.69-.16,2.53-.45,2.53-.89L17.59,43l-1.34-8.23,4.56-1.15.93,6.21.44,2.13c.25.73.66,1.06,1.23,1A5,5,0,0,0,26,42.24.42.42,0,0,0,26.07,41.71ZM5.73,35.52a2.93,2.93,0,0,1-.63.09c-.25,0-.38-.07-.4-.21s.25-.39.81-.69a24.3,24.3,0,0,1,5.63-2l0,0,.21,1.55C8.46,35,6.58,35.42,5.73,35.52Z"/><path class="cls-1" d="M11.15,32.67a24.3,24.3,0,0,0-5.63,2c-.56.3-.84.53-.81.69s.15.21.4.21a2.93,2.93,0,0,0,.63-.09c.85-.1,2.73-.56,5.67-1.33l-.21-1.55Z"/><path class="cls-1" d="M40.52,34.9c.9.24,1.68.38,2.36.49H42.8a3,3,0,0,1,2.28.9,1.53,1.53,0,0,1,0,1.34l-.43.82L43.7,39.7A17.07,17.07,0,0,1,41.2,42a2.7,2.7,0,0,1-2.78.37,1.12,1.12,0,0,1-.4-.22l-.29,0c-.16,0-.25.09-.27.24a.91.91,0,0,0,.24.56l.32.48c1,1.48,2.05,2.06,3.25,1.78A8.89,8.89,0,0,0,44,44.05a16.51,16.51,0,0,0,3.25-2.92c1.83-1.88,2.45-3.55,1.89-5-.1-.62-.79-1.08-2-1.37-2-.48-3.21-.81-3.74-1a1.29,1.29,0,0,1-.75-.76,1.65,1.65,0,0,1-.06-.9c.15-1,1.3-2,3.44-2.84a12.35,12.35,0,0,1,2.4-.6l.09-.06-.09-.75c-.23-1.21-.84-1.82-1.82-1.82a2.89,2.89,0,0,0-.59.06h0a11,11,0,0,0-4.4,2.5c-2.23,1.78-3,3.53-2.4,5.28A1.85,1.85,0,0,0,40.52,34.9Z"/><path class="cls-1" d="M47.89,22.61a50.43,50.43,0,0,1,2.44,14.47c0,.64.19,1.06.5,1.2.72.44,1.81.19,3.26-.73a18.79,18.79,0,0,0,3.8-3.28,9,9,0,0,0,2.39-4,2.13,2.13,0,0,0-1.44-2.86,5,5,0,0,0-3.31.17,8.1,8.1,0,0,0-2.25,1.25l-.1-.09c-.34-3.15-.59-5.07-.75-5.78l-.25-1.29a5.38,5.38,0,0,0-.31-1.21,1.59,1.59,0,0,0-1.59-1,3.22,3.22,0,0,0-.47,0,9.07,9.07,0,0,0-3.4,1c-.14.1-.1.21.15.27C47.14,21,47.58,21.61,47.89,22.61ZM56.15,30A3.49,3.49,0,0,1,56,33.08a5.43,5.43,0,0,1-2.11,2.79l-.56-5.53C54.72,29.28,55.66,29.18,56.15,30Z"/><path class="cls-1" d="M59.87,39.34l-.22-.1c-.24,0-.3.16-.24.41A22.58,22.58,0,0,1,60,44.08a21.88,21.88,0,0,1-.48,5.51q-1.5,6.8-7.38,9.24a17.75,17.75,0,0,1-11.74.63,20.55,20.55,0,0,1-5.89-2.78,12.47,12.47,0,0,1-3.21-3,4.85,4.85,0,0,1-.78-1.5l.06,0a29.32,29.32,0,0,0,5.05,0,33.47,33.47,0,0,0,10-2.15,29.15,29.15,0,0,0,9.24-5.92,17.71,17.71,0,0,0,4.38-5.75c.13-.24.13-.4,0-.46l-.11,0-.24.21-.25.31a29.9,29.9,0,0,1-6.07,5.84,32.24,32.24,0,0,1-10,4.57q-9.07,2.45-16.21,0l-.21-.05c-.09.06-.1.19-.06.4.44,6,4.79,10.17,13.11,12.47a21.38,21.38,0,0,0,8.91.57,15.66,15.66,0,0,0,7.76-3.31,13.49,13.49,0,0,0,4.6-7.39A23.73,23.73,0,0,0,60,39.8Z"/><path class="cls-1" d="M79.48,25.17a2.92,2.92,0,0,0-1.64-.43,6.38,6.38,0,0,0-1.3.15h0A9.1,9.1,0,0,0,69.9,30a4.83,4.83,0,0,0-.8,1.69A4.42,4.42,0,0,0,69,33.65c.23,1.56,1.33,2.24,3.29,2a9.78,9.78,0,0,0,7.57-5l.35-.69a6.63,6.63,0,0,0,.52-2.32v0a3.14,3.14,0,0,0-.11-.83A2.68,2.68,0,0,0,79.48,25.17Zm-2.75,4.15a8.45,8.45,0,0,1-1.64,3.26,4.49,4.49,0,0,1-1.4,1.3,1.52,1.52,0,0,1-.54.13L72.9,34h0c-.31-.16-.44-.64-.4-1.45a7.38,7.38,0,0,1,.81-2.81,9.31,9.31,0,0,1,1.16-1.94l.88-.88a1.74,1.74,0,0,1,1-.42C77.13,26.44,77.26,27.4,76.73,29.32Z"/><path class="cls-1" d="M69,27.09a1.38,1.38,0,0,1,1.44.5c.15.12.25.17.31.12.35-.1.66-.45,1-1a1.85,1.85,0,0,0,.34-1.31c0-.66-.48-1-1.31-1h-.13Q67.9,24.63,65.3,28l0,0-.06,0h0a2.61,2.61,0,0,0-2.62-1.36,3.28,3.28,0,0,0-1.31.44c-.39.24-.64.4-.7.55s-.06.31.14.38a4.65,4.65,0,0,1,1.13.29,1.6,1.6,0,0,1,.8,1.56,21.92,21.92,0,0,1-.94,5.94c-.36.79-.13,1.16.7,1.15l2.3-.3c.89-.23,1.35-.51,1.39-.89l0-.69a31.25,31.25,0,0,0-.29-5V30A5.1,5.1,0,0,1,69,27.09Z"/><rect class="cls-2" width="82" height="82" rx="12" ry="12"/></g></g></svg>