<svg xmlns="http://www.w3.org/2000/svg" viewBox="0 0 82 82"><defs><style>.cls-1,.cls-2{fill:#231f20;}.cls-2{fill-rule:evenodd;}.cls-3{fill:none;}</style></defs><title>logo_disney</title><g id="Layer_2" data-name="Layer 2"><g id="Vordergrund"><path class="cls-1" d="M13.71,43c-2.92.22-6.65.76-6.62,1.78s2.78,3.12,6.39,4.46C13.66,47.06,13.7,44.74,13.71,43ZM3,32c-1,0-1.69-.39-1.7-1a3.57,3.57,0,0,1,1.5-2,16.71,16.71,0,0,1,5.47-1,32,32,0,0,1,4.86.36C23,29.88,33.31,37.37,33.51,44c.13,4.52-3.77,8.76-11.4,9a19.62,19.62,0,0,1-5.58-.63c0,1.11,0,1.7-1.53,1.74-1,0-1.34-1.53-1.48-2.8-4.6-2-7.38-5.36-7.42-6.67-.06-2,3.49-3.58,7.64-4.22.06-1.61.33-5.73,1.18-5.75.34,0,1.05.78,1.32,2a21.72,21.72,0,0,1,.27,3.48h.31c5.82-.17,9.31,1.65,9.37,3.8A2.5,2.5,0,0,1,24,46.49c-.78,0-1.68-.42-1.69-.66,0-.46,1.66-.57,1.63-1.31,0-1.12-4.66-1.61-7.51-1.63,0,1,0,2.13,0,2.92s.07,2.7.09,4.32a16.71,16.71,0,0,0,3.93.38c3.07-.09,10.09-1.21,9.94-6.49-.22-7.37-14.79-14.14-22.59-13.9-3.07.09-4.92.42-4.91.72s1.5.28,1.51.68S3.56,32,3,32Z"/><path class="cls-2" d="M35.73,40C36.24,40,37,41.23,37,42s.2,4.69.26,5.82a17.17,17.17,0,0,1-.06,2.72c-.07.5-.26.75-1.12.78a1.21,1.21,0,0,1-1.34-1.25c-.07-.76-.14-2.92-.1-4s.09-3.15.23-4.44S35.34,40.05,35.73,40Z"/><path class="cls-2" d="M40.73,31.2c-.14-.36-.62-1.08-2.34-1-3.73.11-6.61,2.88-6.54,5.06a2.74,2.74,0,0,0,.86,1.84,1.92,1.92,0,0,0-.14.73c0,.38.58,1.38,1,1.37s.62-.36,1-.92a4.57,4.57,0,0,0,1.7.34c3.51-.1,6.7-3.39,6.63-5.5A1.91,1.91,0,0,0,40.73,31.2Zm-5.3,5.23c.43-.61,2.67-3.61,5-3.68.68,0,.86.4.87.86,0,.72-1.29,2.83-4.23,2.92A8.46,8.46,0,0,1,35.43,36.43Zm-1.83-1a.91.91,0,0,1-.11-.45A3.14,3.14,0,0,1,36.4,32.5a8.89,8.89,0,0,0-1.61,1.43A15,15,0,0,0,33.6,35.43Z"/><path class="cls-2" d="M44.84,39.84c2.06-.06,4.63.21,4.65.86A1.27,1.27,0,0,1,48.21,42c-1.29.13-7.82.41-7.8,1.21,0,.43,2,.52,3.77.63S49,44,49.09,47c.07,2.36-.82,2.86-1.23,3a11.07,11.07,0,0,1-3.54.93c-4,.12-5.6-2.16-5.63-3.32s1-1.94,2.8-2S46,46.27,46,47s-1.2.9-1.73.91C41.89,48,42,47,40.61,47c-.8,0-1.91,1.72,2.08,1.6,3.56-.11,4.63-1.28,4.61-1.91,0-.83-2.58-1.24-4.05-1.32s-3.69-.07-4.45-.54-.65-1.56-.39-2.45C39,40.55,42.79,39.9,44.84,39.84Z"/><path class="cls-2" d="M51.86,40.61c1.39,0,4.3,6.26,4.79,6.24s.13-1.47-.18-3.08c-.7-3.64-1.8-5.52-.77-5.55.76,0,3.25,2.39,3.39,7.05.06,2.17-.24,5-2.2,5.06s-4-5.82-4.46-5.81c-.26,0-.28,3.64-.35,4.74S51.62,51,51,51c-.93,0-1.33-.86-1.38-2.61S50.15,40.66,51.86,40.61Z"/><path class="cls-1" d="M66,44c.66,0,1.24-.13,1.18.72s-.09,1.2-.78,1.22l-3.52.1c-.12.39-.42,1.4-.55,1.82s.36.42,1.05.22a20.62,20.62,0,0,1,3.33-.57c.77,0,1.34,1.2.9,1.62s-2.82,2.43-5.3,2.5a2.63,2.63,0,0,1-2.56-2.57,9,9,0,0,1,.67-3c-.08-.05-.15-.17-.19-.44-.11-.6-.38-1.26.62-1.37l.3,0,.82-1.7a3,3,0,0,1-.85-.23A2.11,2.11,0,0,1,60,41c0-.73,5.34-1.17,6.58-1.21s1.71.22,2.14.83a3,3,0,0,1,.59,1.21c0,.17-.15.58-1.76.63-.82,0-2.16.16-3.44.21l-.56,1.48Z"/><path class="cls-2" d="M69.62,49.09c-1.44,2.84-2.41,5.85-2.34,8.12.08,2.55,1.64,3.51,2.12,3.49s.5-.77.59-1.33A37.87,37.87,0,0,1,72.26,51a4,4,0,0,0,1.1.13c2.92-.09,6.3-3.58,6.19-7.29-.06-2-.81-3.35-2.06-3.31-1.84.05-4.48,2.83-6.6,6.32-.19-1.42.93-3.6,1.88-5.12.67-1.07.55-2.34.27-2.33s-4.16,3.2-4,7.57A4.19,4.19,0,0,0,69.62,49.09Zm3.9-.88c1.76-3.44,3.57-5.4,4.21-5.42C78.83,42.76,77.9,47.76,73.52,48.21Z"/><rect class="cls-3" width="82" height="82" rx="12" ry="12"/></g></g></svg>