<svg xmlns="http://www.w3.org/2000/svg" viewBox="0 0 82 82"><defs><style>.cls-1{fill:none;}</style></defs><title>logo_activision</title><g id="Layer_2" data-name="Layer 2"><g id="root"><path id="path45" d="M75.88,46.77h.19a1.44,1.44,0,1,0,2.87,0h.19a1.63,1.63,0,0,1-1.63,1.63v0a1.63,1.63,0,0,1-1.63-1.63m3.07,0a1.42,1.42,0,0,0-.42-1,1.44,1.44,0,0,0-1-.42v-.19a1.63,1.63,0,0,1,1.63,1.63H79m-1.44-1.53v0m-1.63,1.53a1.63,1.63,0,0,1,1.63-1.63v.19a1.44,1.44,0,0,0-1.44,1.44h-.19"/><path id="path47" d="M27.51,36.84h2.86v10.9H27.51Z"/><path id="path49" d="M69.33,43.09V47.7H66.45V36.5L71.63,41V36.84h2.85v11.3l-5.15-5.05"/><path id="path51" d="M13.14,42.26A5.6,5.6,0,0,1,22.4,38l-1.85,2.1a2.8,2.8,0,1,0,0,4.27l1.85,2.11a5.61,5.61,0,0,1-9.28-4.23"/><path id="path53" d="M35.81,50.23,30.41,35.86H25.89V47.78h-3V35.86H16.38L17.9,33H32.52l3.3,8.61L39.11,33H53.27l1.56,2.86H41.22L35.81,50.23"/><path id="path55" d="M44.95,47.7V45.29h2c.32,0,.93,0,1.08-.53.32-1.05-2.92-2.76-2.92-5.39a2.36,2.36,0,0,1,2.41-2.58h3v2.37H48.62s-.53,0-.67.21c-.8,1.14,3,2.81,3,5.88a2.53,2.53,0,0,1-2.74,2.45H44.95"/><path id="path57" d="M41.27,36.79h2.86V47.7H41.27Z"/><path id="path59" d="M51.37,36.79h2.86V47.7H51.37Z"/><path id="path61" d="M77.94,47.6a2,2,0,0,1-.06-.43c0-.19-.1-.27-.3-.27h-.4v.71h-.4V45.79h1a.5.5,0,0,1,.53.5.44.44,0,0,1-.29.45h0c.2,0,.25.24.26.42a1,1,0,0,0,.08.43h-.4m-.76-1h.44c.18,0,.27-.08.27-.26s-.1-.25-.27-.25h-.44v.51"/><path id="path63" d="M11,47.74l-.76-2H6.66l-.76,2h-3l5.58-16,5.58,16H11M7.53,42.79H9.22L8.37,40l-.84,2.79"/><path id="path65" d="M54.75,42.25a5.61,5.61,0,1,1,5.62,5.62,5.62,5.62,0,0,1-5.62-5.62m2.83,0a2.79,2.79,0,1,0,2.79-2.79,2.79,2.79,0,0,0-2.79,2.79"/><rect class="cls-1" width="82" height="82" rx="12" ry="12"/></g></g></svg>