<?xml version="1.0" encoding="utf-8"?>
<!-- Generator: Adobe Illustrator 21.0.2, SVG Export Plug-In . SVG Version: 6.00 Build 0)  -->
<svg version="1.1" id="Layer_1" xmlns="http://www.w3.org/2000/svg" xmlns:xlink="http://www.w3.org/1999/xlink" x="0px" y="0px"
	 viewBox="0 0 16 13" style="enable-background:new 0 0 16 13;" xml:space="preserve">
<title>logo_twitter</title>
<g id="Layer_2">
	<g id="Layer_1-2">
		<path d="M16,1.5c-0.6,0.3-1.2,0.4-1.9,0.5c0.7-0.4,1.2-1.1,1.4-1.8c-0.7,0.4-1.4,0.6-2.1,0.8c-1.2-1.3-3.3-1.4-4.6-0.2
			c-0.7,0.6-1.1,1.5-1,2.4c0,0.2,0,0.5,0.1,0.7C5.2,3.9,2.8,2.6,1.1,0.6C0.8,1.1,0.6,1.7,0.6,2.3c0,1.1,0.5,2.1,1.5,2.7
			c-0.5,0-1-0.2-1.5-0.4l0,0c0,1.6,1.1,2.9,2.6,3.3C3,7.9,2.7,8,2.4,8C2.2,8,2,8,1.8,7.9c0.4,1.3,1.7,2.3,3.1,2.3
			c-1.2,0.9-2.6,1.4-4.1,1.4c-0.3,0-0.5,0-0.8,0C1.5,12.5,3.2,13,5,13c5.1,0,9.3-4.1,9.3-9.2c0,0,0-0.1,0-0.1c0-0.1,0-0.3,0-0.4
			C15,2.8,15.6,2.2,16,1.5L16,1.5z"/>
	</g>
</g>
</svg>
