<svg xmlns="http://www.w3.org/2000/svg" xmlns:xlink="http://www.w3.org/1999/xlink" viewBox="0 0 128 125"><defs><style>.cls-1{fill:url(#linear-gradient);}.cls-2{fill:#fff;fill-rule:evenodd;}</style><linearGradient id="linear-gradient" x1="122.7" y1="124.42" x2="8.36" y2="3.81" gradientUnits="userSpaceOnUse"><stop offset="0" stop-color="#b42025"/><stop offset="1" stop-color="#d42027"/></linearGradient></defs><title>logo_flashplayer</title><g id="Layer_2" data-name="Layer 2"><g id="Layer_1-2" data-name="Layer 1"><rect class="cls-1" width="128" height="125"/><path class="cls-2" d="M89.42,39.15A21.28,21.28,0,0,1,96.48,38V21.92c-11.59,0-20.89,4.37-28,13.18a52.22,52.22,0,0,0-7,11.75L56.3,59.64a106.24,106.24,0,0,1-4.69,11.52,45,45,0,0,1-4.84,8.58A18.38,18.38,0,0,1,40.41,85a20.69,20.69,0,0,1-8.89,1.83v16.28c11.6,0,20.89-4.45,28-13.18a61.45,61.45,0,0,0,5.72-9.21l4.45-10.16H88.3V54.32H76a51.68,51.68,0,0,1,3.65-7,21,21,0,0,1,4.29-5,16.52,16.52,0,0,1,5.48-3.18Z"/></g></g></svg>