<?xml version="1.0" encoding="utf-8"?>
<!-- Generator: Adobe Illustrator 21.0.2, SVG Export Plug-In . SVG Version: 6.00 Build 0)  -->
<svg version="1.1" id="Layer_1" xmlns="http://www.w3.org/2000/svg" xmlns:xlink="http://www.w3.org/1999/xlink" x="0px" y="0px"
	 viewBox="0 0 16 16" style="enable-background:new 0 0 16 16;" xml:space="preserve">
<title>logo_instagram</title>
<g id="Layer_2">
	<g id="Layer_1-2">
		<path d="M8,0C5.8,0,5.6,0,4.7,0C4,0,3.4,0.2,2.8,0.4c-0.5,0.2-1,0.5-1.4,0.9C0.9,1.7,0.6,2.2,0.4,2.8C0.2,3.4,0,4,0,4.7
			C0,5.6,0,5.8,0,8s0,2.4,0,3.3c0,0.7,0.1,1.3,0.4,1.9c0.2,0.5,0.5,1,0.9,1.4c0.4,0.4,0.9,0.7,1.4,0.9C3.3,15.8,4,16,4.7,16
			c0.8,0,1.1,0,3.3,0s2.4,0,3.3,0c0.7,0,1.3-0.1,1.9-0.4c1.1-0.4,1.9-1.3,2.3-2.3c0.3-0.6,0.4-1.3,0.4-2c0-0.9,0-1.1,0-3.3
			s0-2.4,0-3.3c0-0.7-0.1-1.3-0.4-1.9c-0.2-0.5-0.5-1-0.9-1.4c-0.4-0.4-0.9-0.7-1.5-0.9C12.6,0.2,12,0,11.3,0C10.4,0,10.2,0,8,0z
			 M8,1.4c2.1,0,2.4,0,3.2,0c0.5,0,1,0.1,1.5,0.3c0.3,0.1,0.7,0.3,0.9,0.6c0.3,0.3,0.5,0.6,0.6,0.9c0.2,0.5,0.3,1,0.3,1.5
			c0,0.8,0,1.1,0,3.2s0,2.4-0.1,3.2c0,0.5-0.1,1-0.3,1.5c-0.1,0.3-0.3,0.7-0.6,0.9c-0.3,0.3-0.6,0.5-0.9,0.6c-0.5,0.2-1,0.3-1.5,0.3
			c-0.9,0-1.1,0-3.2,0s-2.4,0-3.2-0.1c-0.5,0-1-0.1-1.5-0.3c-0.3-0.1-0.7-0.3-0.9-0.6C2,13.3,1.8,13,1.7,12.6
			c-0.2-0.5-0.3-1-0.3-1.5c0-0.8,0-1.1,0-3.2s0-2.4,0-3.2c0-0.5,0.1-1,0.3-1.5C1.8,2.8,2,2.5,2.3,2.2C2.5,2,2.9,1.8,3.2,1.6
			c0.5-0.2,1-0.3,1.5-0.3C5.5,1.4,5.8,1.4,8,1.4L8,1.4z M8,3.9C5.7,3.9,3.9,5.7,3.9,8s1.8,4.1,4.1,4.1s4.1-1.8,4.1-4.1l0,0
			C12.1,5.7,10.3,3.9,8,3.9z M8,10.7c-1.5,0-2.7-1.2-2.7-2.7c0-1.5,1.2-2.7,2.7-2.7s2.7,1.2,2.7,2.7c0,0,0,0,0,0
			C10.7,9.5,9.5,10.7,8,10.7L8,10.7z M13.2,3.7c0,0.6-0.4,1-1,1s-1-0.4-1-1s0.4-1,1-1C12.8,2.7,13.2,3.2,13.2,3.7
			C13.2,3.7,13.2,3.7,13.2,3.7L13.2,3.7z"/>
	</g>
</g>
</svg>
