<?xml version="1.0" encoding="utf-8"?>
<!-- Generator: Adobe Illustrator 21.0.2, SVG Export Plug-In . SVG Version: 6.00 Build 0)  -->
<svg version="1.1" id="Layer_1" xmlns="http://www.w3.org/2000/svg" xmlns:xlink="http://www.w3.org/1999/xlink" x="0px" y="0px"
	 viewBox="0 0 9.2 16" style="enable-background:new 0 0 9.2 16;" xml:space="preserve">
<title>logo_tumblr</title>
<g id="Layer_2">
	<g id="Layer_1-2">
		<path d="M6.3,16c-2.4,0.2-4.5-1.6-4.7-4c0-0.1,0-0.2,0-0.3V6.5H0V4.4c1.8-0.7,3-2.4,3.1-4.3c0-0.1,0-0.1,0.1-0.1h2.3v4.1h3.2v2.4
			H5.6v5C5.5,12.3,6,13,6.8,13.1c0.1,0,0.2,0,0.3,0h0.1c0.4,0,0.9-0.1,1.3-0.3l0.8,2.3C8.4,15.7,7.4,16,6.4,16H6.3z"/>
	</g>
</g>
</svg>
