<?xml version="1.0" encoding="utf-8"?>
<!-- Generator: Adobe Illustrator 18.1.1, SVG Export Plug-In . SVG Version: 6.00 Build 0)  -->
<svg version="1.1" id="Layer_1" xmlns="http://www.w3.org/2000/svg" xmlns:xlink="http://www.w3.org/1999/xlink" x="0px" y="0px"
	 viewBox="0 0 158.4 159.1" enable-background="new 0 0 158.4 159.1" xml:space="preserve">
<g>
	<circle fill="#F7EBE5" cx="77.4" cy="79.2" r="73.5"/>
</g>
<g>
	<g>
		<path fill="#E0867C" d="M141.7,44.5c14.1,26.8,10.6,60.1-9.5,83c-19.9,22.6-52.7,30.7-80.8,20c-29.4-11.1-48.7-41-46.8-72.4
			C6.3,44.8,27.2,18.3,56.2,9.4c33.1-10.1,69,5.1,85.6,35.2c0.4,0.7,1.2,0.1,0.8-0.5c-14.8-26.9-45-42.6-75.6-38.3
			C35.8,10.2,10.3,34.6,4.6,65.4c-5.6,30.1,8.4,61.5,34.7,77.3c26.7,16,61.4,13.5,85.4-6.4c27-22.4,34.2-61.3,17.9-92.1
			C142.3,43.6,141.3,43.7,141.7,44.5z"/>
	</g>
</g>
<path fill="#A196A1" d="M47.9,99.9l-5.2-3.3c0,0-0.6-0.7,5.1-9.9c5.7-9.3,9.9-12.4,9.9-12.4s1,1.4,2.2,3.5s1.7,3.8,1.7,3.8
	L47.9,99.9z"/>
<path fill="#A196A1" d="M111.9,65.4l0.2-6.2c0,0-0.2-0.8-11.1-1.2c-10.9-0.4-15.8,1.4-15.8,1.4s0.6,1.6,1.8,3.7
	c1.2,2.2,2.2,3.5,2.2,3.5L111.9,65.4z"/>
<g>
	<path fill="#A196A1" d="M61.4,129.8c-0.4,1.9-1,3.7-1.9,5.4c-0.8,1.7-1.9,3.4-3.4,4.8c-0.7,0.7-1.6,1.3-2.5,1.7
		c-0.9,0.4-1.9,0.7-3,0.7c-1,0.1-2.1,0-3-0.3c-0.5-0.1-1-0.3-1.5-0.4l-0.4-0.1l-0.4-0.2l-0.7-0.3c-0.9-0.5-1.8-1-2.6-1.7
		c-0.8-0.7-1.5-1.5-2-2.4c-1.1-1.8-1.7-3.8-2-5.8c-0.2-2-0.1-4.1,0.2-6c0.1-1,0.3-2,0.6-2.9c0.3-1,0.5-1.9,0.9-2.9l0.6,1.7
		c-7.2-3.6-14.3-7.1-21.5-10.7l-0.6-0.3l-0.2-0.6c-0.8-2-1.4-3.9-2-5.9c-0.6-2-1-3.9-1.4-5.9c-0.8-4-1.3-8.1-1.4-12.1
		c-0.2-8.2,1-16.4,3.8-24.2c1.4-3.9,3.3-7.6,5.5-11.1l1.7-2.6l1.9-2.5c0.6-0.8,1.3-1.6,2-2.4c0.7-0.8,1.3-1.6,2.1-2.3
		c1.5-1.4,2.9-3,4.5-4.3l2.3-2l2.4-1.9c3.3-2.5,6.7-4.6,10.3-6.6l0.3-0.2l0.2-0.1l0.2-0.1l0.7-0.3l1.3-0.7l2.7-1.3
		c1.9-0.8,3.8-1.7,5.7-2.4l2.9-1l1.4-0.5l1.5-0.4l3-0.8c1-0.3,2-0.4,3-0.7c2-0.5,4-0.7,6.1-1c1-0.1,2.1-0.2,3.1-0.3
		c0.5,0,1-0.1,1.5-0.1l1.5,0c4.1-0.1,8.3,0.3,12.3,1.1c4,0.8,8,2,11.8,3.5c3.8,1.6,7.4,3.5,10.8,5.8c3.4,2.2,6.6,4.8,9.6,7.6
		c1.5,1.4,2.9,2.8,4.3,4.4c1.4,1.5,2.7,3,3.9,4.8l0.4,0.6l-0.1,0.7c-1.7,8.5-3.3,17.1-5,25.6l-0.5-1.1c0.7,0.5,1.3,0.9,1.9,1.4
		c0.6,0.5,1.2,1,1.8,1.5c1.1,1,2.2,2.2,3.2,3.4c1,1.2,1.8,2.6,2.4,4.1c0.6,1.5,0.9,3.1,0.7,4.7c-0.1,0.8-0.3,1.6-0.6,2.3
		c-0.2,0.4-0.3,0.7-0.6,1.1l-0.6,0.9c-0.2,0.3-0.5,0.6-0.7,0.9c-0.3,0.3-0.5,0.6-0.8,0.9c-0.3,0.3-0.6,0.5-0.9,0.8
		c-0.3,0.2-0.7,0.4-1,0.6l-1.1,0.5c-0.4,0.1-0.8,0.2-1.1,0.3c-0.8,0.1-1.5,0.2-2.3,0.1c-0.8-0.1-1.5-0.2-2.2-0.4
		c-0.7-0.2-1.4-0.5-2.1-0.9c0.7,0.3,1.4,0.6,2.1,0.7c0.7,0.2,1.5,0.3,2.2,0.3c0.7,0,1.5-0.1,2.2-0.2c0.3-0.1,0.7-0.2,1-0.3l1-0.5
		c0.3-0.2,0.6-0.4,0.9-0.6c0.3-0.2,0.5-0.5,0.8-0.7c0.3-0.2,0.5-0.5,0.7-0.8c0.2-0.3,0.4-0.5,0.6-0.9l0.5-1c0.2-0.3,0.3-0.6,0.4-0.9
		c0.2-0.7,0.4-1.3,0.4-2c0.1-1.4-0.3-2.8-0.9-4c-0.6-1.3-1.4-2.5-2.4-3.5c-0.9-1.1-2-2.1-3.1-3c-0.6-0.5-1.1-0.9-1.7-1.3
		c-0.6-0.4-1.2-0.8-1.8-1.2l-0.6-0.4l0.1-0.8c1.3-8.6,2.6-17.2,3.9-25.8l0.3,1.2c-2.3-2.9-5-5.8-7.9-8.3c-2.9-2.6-6-4.9-9.3-6.9
		c-3.3-2-6.7-3.8-10.3-5.2c-3.6-1.4-7.3-2.4-11-3.1c-3.8-0.7-7.6-0.9-11.4-0.8l-1.4,0c-0.5,0-0.9,0.1-1.4,0.1
		c-0.9,0.1-1.9,0.2-2.8,0.3c-1.9,0.3-3.8,0.5-5.6,1c-0.9,0.2-1.9,0.4-2.8,0.6l-2.8,0.8l-1.4,0.4l-1.4,0.5l-2.7,1
		c-1.8,0.7-3.5,1.5-5.3,2.3l-2.7,1.3l-1.3,0.7l-0.7,0.3l-0.6,0.3c-3.4,1.9-6.7,3.9-9.7,6.2l-2.3,1.7l-2.2,1.9
		c-1.5,1.2-2.8,2.6-4.2,3.9c-0.7,0.7-1.3,1.4-1.9,2.1c-0.6,0.7-1.3,1.4-1.8,2.2l-1.7,2.3l-1.6,2.4c-2,3.2-3.8,6.6-5.2,10.2
		c-2.7,7.1-4,14.8-3.9,22.5c0,3.8,0.4,7.7,1,11.5c0.3,1.9,0.7,3.8,1.2,5.7c0.5,1.9,1,3.8,1.7,5.5l-0.8-0.9c7,3.8,14,7.6,21.1,11.5
		l1.1,0.6l-0.5,1.1c-0.3,0.8-0.6,1.7-0.9,2.6c-0.3,0.9-0.5,1.8-0.7,2.7c-0.4,1.8-0.5,3.6-0.4,5.4c0.1,1.8,0.5,3.5,1.4,5.1
		c0.4,0.8,1,1.4,1.6,2.1c0.6,0.6,1.4,1.1,2.1,1.6l0.6,0.3l0.3,0.1l0.3,0.1c0.4,0.2,0.8,0.3,1.3,0.5c0.9,0.3,1.8,0.4,2.6,0.4
		c1.8,0,3.5-0.7,5-1.9c1.4-1.2,2.6-2.7,3.6-4.3C60.1,133.4,60.9,131.6,61.4,129.8z"/>
</g>
<path fill="#EB8558" d="M62.2,131.5c0,0,8.9,0.9,18.7,0.5c8.4-0.3,23.7-4,23.7-4s-6-1.1-10.8-3.7c-4.8-2.6-7.5-7.5-7.5-7.5
	s3.7-0.8,10-4.2c6.3-3.4,9.3-6.7,9.3-6.7s1.4,5,1.6,10.4c0.2,5.4-2.6,11.7-2.6,11.7s9.7-11.5,13.3-17.7c4.3-7.4,8.9-15.4,8.9-15.4
	s-1.3-9-2.6-14.7c-1.4-5.6-4.7-15.8-4.7-15.8s-17.3-9.4-45.9,6s-29.6,36.4-29.6,36.4s4.5,7.6,8,12.4
	C55.4,123.9,62.2,131.5,62.2,131.5z"/>
<path fill="#FFFFFF" d="M115.6,82.6c-0.7,7.2-7.6,15.3-13,13.9c-5.4-1.4-9-7-6.8-15.9s9.7-14.1,14.9-12
	C116.4,70.9,115.7,81.2,115.6,82.6z"/>
<g>
	<circle fill="#FFFFFF" cx="70" cy="101" r="18.2"/>
	<path fill="#A196A1" d="M86.1,92.4c0,0,0.2,0.4,0.6,1.2c0.2,0.4,0.4,0.9,0.6,1.4c0.1,0.3,0.2,0.6,0.3,0.9c0.1,0.3,0.2,0.7,0.3,1.1
		c0.3,1.5,0.7,3.4,0.5,5.7c-0.1,2.2-0.7,4.7-1.9,7.2c-1.3,2.4-3.2,4.8-5.8,6.6c-0.7,0.4-1.3,0.8-2.1,1.2c-0.7,0.3-1.4,0.7-2.2,0.9
		c-1.6,0.6-3.2,0.8-4.9,1c-1.7,0.1-3.4-0.1-5.1-0.4c-1.7-0.4-3.4-1-4.9-1.8c-1.6-0.8-3-1.9-4.3-3.2c-1.3-1.3-2.4-2.7-3.3-4.3
		c-0.8-1.6-1.5-3.3-1.9-5.1c-0.4-1.8-0.5-3.6-0.4-5.4c0.2-1.8,0.6-3.6,1.2-5.2c0.7-1.6,1.5-3.2,2.6-4.6c2.1-2.7,5-4.7,7.8-5.9
		c3-1.2,6-1.5,8.8-1.2c2.7,0.3,5.1,1.3,7,2.3c1.9,1.1,3.3,2.4,4.4,3.5c0.3,0.3,0.5,0.6,0.7,0.8c0.2,0.3,0.4,0.5,0.6,0.8
		c0.4,0.5,0.7,0.9,0.9,1.3C85.8,92,86.1,92.4,86.1,92.4z M86,92.4c0,0-0.2-0.4-0.7-1.1c-0.2-0.4-0.5-0.8-0.9-1.3
		c-0.2-0.2-0.4-0.5-0.6-0.8c-0.2-0.3-0.5-0.5-0.8-0.8c-1.1-1.1-2.6-2.3-4.5-3.3c-1.9-1-4.3-1.7-6.9-1.9c-2.6-0.2-5.5,0.2-8.3,1.3
		c-2.8,1.1-5.4,3.1-7.4,5.6c-1,1.3-1.8,2.7-2.5,4.3c-0.6,1.6-1,3.2-1.2,4.9c-0.2,1.7-0.1,3.5,0.2,5.2c0.3,1.7,0.9,3.4,1.7,5
		c0.8,1.5,1.9,3,3.1,4.3c1.3,1.2,2.7,2.3,4.2,3.1c1.6,0.8,3.2,1.4,4.9,1.7c1.7,0.3,3.4,0.4,5,0.2c1.6-0.2,3.3-0.5,4.7-1.1
		c0.7-0.2,1.4-0.6,2.2-1c0.7-0.4,1.3-0.8,1.9-1.2c2.4-1.8,4.3-4,5.6-6.3c1.3-2.3,1.9-4.7,2.2-6.8c0.3-2.1,0.1-4.1-0.3-5.6
		c-0.1-0.4-0.2-0.7-0.3-1.1c-0.1-0.3-0.2-0.6-0.3-0.9c-0.2-0.6-0.4-1.1-0.6-1.4C86.2,92.8,86,92.4,86,92.4z"/>
</g>
<circle fill="#A196A1" cx="105.8" cy="85" r="6.3"/>
<circle fill="#A196A1" cx="110.5" cy="74" r="3"/>
<ellipse transform="matrix(0.8804 -0.4742 0.4742 0.8804 -39.5765 45.1529)" fill="#7FAD9A" cx="69.7" cy="101.1" rx="13.2" ry="12.9"/>
<g>
	<g>
		<path fill="#944B43" d="M144.7,43.6c14.2,27,11.7,60.5-7.6,84.4c-21,26.1-57.6,34.9-88.3,21.7C20.7,137.6,2,108.7,2.4,78
			C2.8,45.9,23.9,16.7,54.5,6.7C89.4-4.5,127.3,11.9,144.7,43.6c0.1,0.2,0.8-0.1,0.7-0.2C130.2,15.6,99.2-0.8,67.5,3.5
			c-31,4.2-56.8,27.8-63.9,58.3c-7.6,32.8,7.8,67.8,37,84.4c26.2,14.9,59.4,12.9,83.5-5.1c30.3-22.6,38.7-64.6,21.3-97.7
			C145.4,43.2,144.7,43.4,144.7,43.6z"/>
	</g>
</g>
<g>
	<g>
		<path fill="#A196A1" d="M148.4,42.2c14.6,27.6,12.3,61.9-7,86.7c-21.9,28.1-61,37.6-93.5,23.2c-28.9-12.9-48-42.7-47.5-74.4
			C0.9,44.8,22.3,14.8,53.6,4.2C90-8.1,130.1,8.9,148.4,42.2c0.1,0.2,0.8-0.1,0.7-0.2c-16-29.1-48.7-46.2-81.8-41.3
			C35,5.5,8.4,30.3,1.5,62.2c-7.3,33.8,8.6,69.5,38.7,86.6c27.1,15.4,61.5,13.4,86.6-5c31.7-23.3,40.6-67.3,22.4-101.8
			C149,41.8,148.3,42.1,148.4,42.2z"/>
	</g>
</g>
<g>
	<path fill="#766F94" d="M75.2,108.3l-3.3,1.6c-0.7,0.4-1.6,0.1-1.9-0.7l-6.7-13.4c-0.4-0.7-0.1-1.6,0.7-1.9l3.3-1.6
		c0.7-0.4,1.6-0.1,1.9,0.7l6.7,13.4C76.2,107,75.9,107.9,75.2,108.3z"/>
	<path fill="#766F94" d="M62.4,106.6l-1.6-3.3c-0.4-0.7-0.1-1.6,0.7-1.9l13.4-6.7c0.7-0.4,1.6-0.1,1.9,0.7l1.6,3.3
		c0.4,0.7,0.1,1.6-0.7,1.9l-13.4,6.7C63.6,107.7,62.8,107.4,62.4,106.6z"/>
</g>
</svg>
