<?xml version="1.0" encoding="utf-8"?>
<!-- Generator: Adobe Illustrator 21.0.2, SVG Export Plug-In . SVG Version: 6.00 Build 0)  -->
<svg version="1.1" id="Layer_1" xmlns="http://www.w3.org/2000/svg" xmlns:xlink="http://www.w3.org/1999/xlink" x="0px" y="0px"
	 viewBox="0 0 16 15.6" style="enable-background:new 0 0 16 15.6;" xml:space="preserve">
<title>logo_github</title>
<g id="Layer_2">
	<g id="Layer_1-2">
		<path d="M8,0C3.6,0,0,3.6,0,8c0,3.4,2.2,6.5,5.5,7.6C5.9,15.7,6,15.4,6,15.2s0-0.7,0-1.4c-2.2,0.5-2.7-1.1-2.7-1.1
			c-0.1-0.5-0.5-0.9-0.9-1.2c-0.7-0.5,0.1-0.5,0.1-0.5c0.5,0.1,1,0.4,1.2,0.8C4.2,12.7,5.2,13,6,12.6c0-0.4,0.2-0.8,0.5-1.1
			c-1.8-0.2-3.6-0.9-3.6-4c0-0.8,0.3-1.6,0.8-2.2C3.4,4.7,3.5,3.9,3.8,3.3c0,0,0.7-0.2,2.2,0.8c1.3-0.4,2.7-0.4,4,0
			c1.5-1,2.2-0.8,2.2-0.8c0.3,0.7,0.3,1.4,0.1,2.1C12.8,6,13.1,6.7,13,7.5c0,3.1-1.9,3.8-3.6,4C9.8,11.9,10,12.4,10,13
			c0,1.1,0,1.9,0,2.2s0.1,0.5,0.6,0.4c4.2-1.4,6.4-6,5-10.2C14.4,2.2,11.4,0,8,0"/>
	</g>
</g>
</svg>
