<svg xmlns="http://www.w3.org/2000/svg" viewBox="0 0 82 82"><defs><style>.cls-1{fill:#010101;}.cls-2{fill:#fefefe;}.cls-3{fill:#fff;}.cls-4{fill:none;}</style></defs><title>logo_cn</title><g id="Layer_2" data-name="Layer 2"><g id="svg2"><path id="path12" class="cls-1" d="M3,61.42a2.4,2.4,0,0,1,1.77-2.35,2.44,2.44,0,0,1,2.78,1.12c-.4.28-.85.47-1.25.76a1.23,1.23,0,0,0-.69-.5,1,1,0,0,0-1.1.77,1.28,1.28,0,0,0,.11.73,1,1,0,0,0,1.68-.07c.41.26.85.49,1.26.75a2.37,2.37,0,0,1-2.17,1.19A2.37,2.37,0,0,1,3,61.42Z"/><path id="path22" class="cls-1" d="M9.07,59.09c.78,0,1.57,0,2.35,0,.35.93.59,1.9.92,2.84.23.61.35,1.25.59,1.84h-1.7A5.53,5.53,0,0,0,11,63c-.48,0-1,0-1.44,0-.1.26-.19.53-.27.79H7.64C8.09,62.2,8.64,60.66,9.07,59.09Z"/><path id="path40" class="cls-2" d="M10.31,60.38c0,.49.27.93.35,1.41H9.85C10.05,61.34,10.08,60.83,10.31,60.38Z"/><path id="path42" class="cls-2" d="M14.91,60.45a9.74,9.74,0,0,1,1.16,0,.42.42,0,0,1-.08.75c-.36,0-.72,0-1.08,0C14.91,61,14.91,60.71,14.91,60.45Z"/><path id="path1984" class="cls-3" d="M39.93,18.17H78.13q0,19.08,0,38.16H39.93Q39.93,37.25,39.93,18.17Z"/><path id="path6" class="cls-1" d="M1.74,18.18H39.93q0,19.08,0,38.16H1.74Q1.74,37.26,1.74,18.18Z"/><path id="path8" class="cls-2" d="M17.84,20.73a17.05,17.05,0,0,1,18.88,8.1c-2.68,1.51-5.35,3.06-8,4.57-.48.27-1,.53-1.44.83a6.14,6.14,0,0,0-6.26-3,6.13,6.13,0,1,0,4.19,11.24,6.38,6.38,0,0,0,2.08-2.16c1.8,1.08,3.64,2.08,5.45,3.14,1.34.76,2.67,1.54,4,2.28a17.12,17.12,0,0,1-10.45,8c-.54.17-1.11.23-1.66.37a18.35,18.35,0,0,1-3.83.15,17,17,0,0,1-2.94-33.53Z"/><path id="path10" class="cls-1" d="M42.65,20.91c3.64,0,7.27,0,10.91,0,3.67,4.52,7.28,9.1,10.94,13.63,0-4.54,0-9.09,0-13.63H75.4q0,16.36,0,32.73H64.48c-3.56-4.46-7.14-8.91-10.7-13.37L53.56,40c0,4.53,0,9.07,0,13.6H42.65Q42.65,37.27,42.65,20.91Z"/><path id="path14" class="cls-1" d="M25.11,59a2.43,2.43,0,0,1,2.4.92A2.46,2.46,0,0,1,27,63.36a2.61,2.61,0,0,1-2.14.41,2.49,2.49,0,0,1-1.44-1.11,2.64,2.64,0,0,1-.19-2.06A2.42,2.42,0,0,1,25.11,59Z"/><path id="path16" class="cls-1" d="M30.16,59.08a2.44,2.44,0,0,1,1.72,4.54,2.83,2.83,0,0,1-1.57.18,2.41,2.41,0,0,1-1.78-1.53A2.44,2.44,0,0,1,30.16,59.08Z"/><path id="path18" class="cls-1" d="M63.86,59.07a2.42,2.42,0,0,1,3.08,2.13,2.39,2.39,0,0,1-1.09,2.26,2.67,2.67,0,0,1-1.92.32,2.48,2.48,0,0,1-1.75-1.64,3,3,0,0,1,0-1.52A2.45,2.45,0,0,1,63.86,59.07Z"/><path id="path20" class="cls-1" d="M72.39,59.09H74c0,.5,0,1,0,1.49.41-.48.76-1,1.15-1.49h2c-.62.74-1.2,1.51-1.84,2.24.63.8,1.22,1.63,1.85,2.43-.68,0-1.35,0-2,0-.38-.59-.77-1.17-1.16-1.75q0,.87,0,1.75H72.39Q72.39,61.42,72.39,59.09Z"/><path id="path24" class="cls-1" d="M13.34,59.09c1,0,2,0,2.94,0a1.64,1.64,0,0,1,1.5,2.06,1.75,1.75,0,0,1-.87,1.06c.33.51.62,1,.95,1.55H16.11c-.26-.45-.46-.93-.72-1.39l-.48,0c0,.46,0,.91,0,1.37H13.34Q13.34,61.43,13.34,59.09Z"/><path id="path26" class="cls-1" d="M18.23,60.45c0-.46,0-.91,0-1.37h4.7v1.36H21.46q0,1.66,0,3.32H19.72c0-1.11,0-2.21,0-3.32Z"/><path id="path28" class="cls-1" d="M33.7,63.77q0-2.34,0-4.69c.52,0,1,0,1.55,0,.57.59,1,1.29,1.57,1.91,0-.64,0-1.28,0-1.92h1.57q0,2.34,0,4.68H36.84c-.53-.65-1-1.31-1.57-2,0,.65,0,1.3,0,2Z"/><path id="path30" class="cls-1" d="M41.5,59.09H43.1c.52.64,1,1.29,1.55,1.92,0-.64,0-1.28,0-1.92H46.2q0,2.34,0,4.68H44.66c-.54-.62-1-1.27-1.55-1.92,0,.64,0,1.28,0,1.91H41.5Q41.5,61.42,41.5,59.09Z"/><path id="path32" class="cls-1" d="M46.84,59.09h4.09c0,.45,0,.9,0,1.36H48.41c0,.1,0,.3,0,.4h2.15q0,.59,0,1.18H48.41c0,.16,0,.32,0,.48h2.52c0,.42,0,.85,0,1.27H46.84Q46.84,61.42,46.84,59.09Z"/><path id="path34" class="cls-1" d="M51.45,60.44q0-.68,0-1.36h4.69c0,.45,0,.91,0,1.36H54.67c0,1.11,0,2.22,0,3.32H52.91c0-1.11,0-2.21,0-3.32Z"/><path id="path36" class="cls-1" d="M56.5,59.09h1.58c.16.66.22,1.35.4,2,.25-.62.52-1.24.76-1.87.3.62.5,1.28.82,1.88,0-.69.28-1.34.34-2H62c-.26,1.57-.61,3.12-.87,4.68H59.82c-.22-.41-.37-.85-.58-1.26-.18.42-.37.83-.53,1.25h-1.3C57.08,62.21,56.82,60.64,56.5,59.09Z"/><path id="path38" class="cls-1" d="M67.43,63.76c0-1.56,0-3.12,0-4.68h2.15a4.33,4.33,0,0,1,1.24.09,1.64,1.64,0,0,1,1.08,1.51,1.61,1.61,0,0,1-.9,1.5c.28.54.62,1,.91,1.57H70.18l-.7-1.38H69c0,.46,0,.92,0,1.38Z"/><path id="path44" class="cls-2" d="M69,60.44a11.19,11.19,0,0,1,1.12,0c.28.11.24.46.13.68a4.32,4.32,0,0,1-1.26.08C69,61,69,60.7,69,60.44Z"/><path id="path46" class="cls-2" d="M25.16,60.65a.85.85,0,0,1,1.21.5,1.06,1.06,0,0,1-.1.81.9.9,0,0,1-1.24.15A.87.87,0,0,1,25.16,60.65Z"/><path id="path48" class="cls-2" d="M30.22,60.79a.87.87,0,0,1,1.43.37c.14.28,0,.56-.13.82a1,1,0,0,1-.78.31A.88.88,0,0,1,30.22,60.79Z"/><path id="path50" class="cls-2" d="M64.18,60.63a.86.86,0,1,1-.12,1.52A.88.88,0,0,1,64.18,60.63Z"/><path id="path52" class="cls-1" d="M77.84,62.5c.34,0,.68,0,1,0l.09.21-.45,0c0,.35,0,.69,0,1h-.29c0-.35,0-.71,0-1.06h-.37C77.84,62.67,77.84,62.55,77.84,62.5Z"/><path id="path54" class="cls-1" d="M79,62.49l.39,0c.09.31.15.63.23.95.07-.32.14-.64.24-1h.36q0,.64,0,1.28H80c0-.34,0-.68,0-1a8.87,8.87,0,0,1-.23,1h-.28a7.1,7.1,0,0,0-.2-1c0,.34,0,.67,0,1H79C79,63.34,79,62.92,79,62.49Z"/><rect class="cls-4" width="82" height="82" rx="12" ry="12"/></g></g></svg>