<svg xmlns="http://www.w3.org/2000/svg" xmlns:xlink="http://www.w3.org/1999/xlink" viewBox="0 0 82 82"><defs><style>.cls-1{fill:none;}.cls-2{fill:#fff;}.cls-3{fill:#1a1a1a;}.cls-4{fill:#d12421;}.cls-5{clip-path:url(#clip-path);}.cls-6{clip-path:url(#clip-path-2);}.cls-7{clip-path:url(#clip-path-3);}</style><clipPath id="clip-path"><polygon class="cls-1" points="9.84 44.94 7.88 46.66 10.52 47.59 10.6 47.66 7.78 46.66 9.86 44.84 9.84 44.94 9.84 44.94"/></clipPath><clipPath id="clip-path-2"><polygon class="cls-1" points="10.84 48.81 8.96 50.65 11.55 51.48 11.63 51.58 8.86 50.67 10.89 48.71 10.84 48.81"/></clipPath><clipPath id="clip-path-3"><polygon class="cls-1" points="11.89 52.8 10.43 54.85 12.48 55.03 12.55 55.08 10.33 54.9 11.92 52.68 11.89 52.8 11.89 52.8"/></clipPath></defs><title>logo_mattel_black</title><g id="Layer_2" data-name="Layer 2"><g id="Layer_1-2" data-name="Layer 1"><polygon class="cls-2" points="62.1 28.05 65.6 41.56 74.51 39.73 71.4 37.65 67.58 38.72 64.87 27.36 62.1 28.05"/><polygon class="cls-2" points="9.2 42.25 22.57 38.6 25.95 52.06 14.17 55.22 12.55 55.08 9.2 42.25"/><path class="cls-3" d="M70,68.59c.34,0,.64,0,.64-.44s-.34-.37-.61-.37h-.54v.81Zm-.51,1.57h-.44V67.41h1c.66,0,1,.22,1,.78a.71.71,0,0,1-.71.76l.78,1.2h-.51L70,69h-.44ZM70,66.68a2.06,2.06,0,1,0,1.88,2.06A1.92,1.92,0,0,0,70,66.68Zm0,4.53a2.47,2.47,0,1,1,2.42-2.47A2.39,2.39,0,0,1,70,71.21Z"/><path class="cls-3" d="M70,68.59c.34,0,.64,0,.64-.44s-.34-.37-.61-.37h-.54v.81Zm0,0h-.51l0,0v-.81l0,0h.54c.24,0,.66,0,.66.42s-.37.49-.69.49Zm-.51,1.52h-.44V67.41h1c.66,0,1,.22,1,.78a.71.71,0,0,1-.71.76l.78,1.2h-.51L70,69h-.44Zm0,0V69l0,0h.42l0,0,.71,1.15h.39L70.37,69l0-.07a.69.69,0,0,0,.64-.39l0-.29,0-.34c-.12-.27-.39-.39-.88-.39h-1v2.64l.27,0ZM70,66.68a2.06,2.06,0,1,0,1.88,2.06A1.92,1.92,0,0,0,70,66.68Zm-.39,0,.39,0,.34,0a2,2,0,0,1,1.57,1.62l0,.44,0,.44A1.92,1.92,0,0,1,70,70.82a2.11,2.11,0,0,1-.39-4.14ZM70,71.21a2.47,2.47,0,1,1,2.42-2.47A2.39,2.39,0,0,1,70,71.21Zm-.44-.1.44,0,.47,0a2.43,2.43,0,0,0-.47-4.8,2.31,2.31,0,0,0-2.33,1.91l0,.51,0,.51a2.21,2.21,0,0,0,1.88,1.88Z"/><polygon points="43.89 10.47 41.93 7.34 40.09 10.43 37.77 7.59 36.3 10.82 33.7 8.15 32.58 11.6 29.64 9.3 29.05 13 25.85 10.99 25.6 14.59 22.08 13.07 22.32 16.79 18.77 15.74 19.56 19.21 15.76 18.89 16.86 22.3 13 22.18 14.66 25.63 10.96 25.99 12.97 29.1 9.28 29.93 11.77 32.77 8.13 33.9 10.91 36.45 7.59 38.06 10.6 40.36 7.49 42.35 9.5 43.4 9.28 42.54 12.78 41.66 18.28 50.42 18.8 39.97 22.35 39.09 25.73 52.11 23.42 52.73 20.93 42.86 20.12 53.61 17.92 54.19 12.48 45.45 14.86 55.03 14.2 55.2 12.36 58.63 16.13 58.82 14.88 62.27 18.58 61.83 17.57 65.31 21.34 64.38 20.88 68.07 24.4 66.68 24.43 70.4 27.46 68.49 27.95 72.26 30.96 69.86 32.06 73.53 34.66 70.81 36.15 74.29 38.41 71.5 40.39 74.66 40.39 74.66 42.22 71.62 44.7 74.46 46.02 71.18 48.76 73.78 49.91 70.3 52.85 72.5 53.53 69 56.67 70.96 56.74 67.14 60.14 68.56 59.9 64.99 63.57 66.07 62.76 62.37 66.34 63.15 65.19 59.63 68.88 59.75 67.31 56.37 71.21 56.4 69.15 52.92 72.68 52.14 70.45 49.18 73.95 48.07 71.23 45.28 74.49 43.77 71.6 41.42 74.51 39.73 73.8 39.24 65.87 41.37 62.44 28.32 64.7 27.73 67.58 38.72 71.38 37.65 74.1 35.34 70.77 33.75 73.24 31.09 69.64 30.03 71.89 27.12 68.27 26.83 70.08 23.64 66.24 23.5 67.51 20.14 63.91 20.49 64.89 16.94 61.2 17.89 61.51 14.02 58.09 15.49 57.96 11.7 54.85 13.46 54.22 9.81 51.28 12.02 50.25 8.42 47.56 10.99 46.09 7.66 43.89 10.47"/><path class="cls-4" d="M71.35,37.6,74,35.37l-3.26-1.54,0-.07,2.4-2.59-3.52-1,0-.07,2.2-2.82-3.52-.29,0-.07L70,23.77l-3.75-.15,0-.07,1.25-3.28-3.5.32,0-.07L64.79,17l-3.6.91-.07,0,.32-3.77-3.33,1.44-.07,0-.12-3.72-3,1.71-.07,0-.61-3.57L51.33,12l-.07,0-1-3.52L47.61,11l-.1,0L46.07,7.73l-2.13,2.74h-.1L41.93,7.41l-1.79,3H40L37.77,7.68l-1.44,3.18-.1,0-2.5-2.64-1.1,3.38-.07,0L29.69,9.4,29.1,13,29,13l-3.13-2-.24,3.5-.07,0-3.45-1.47.24,3.65-.07,0-3.45-1,.78,3.38,0,.07-3.72-.32,1.05,3.33,0,.07-3.77-.12,1.62,3.35,0,.07-3.6.37,2,3.06,0,.07L9.37,30l2.42,2.77,0,.1L8.2,33.93l2.72,2.47,0,.1L7.66,38.09l2.94,2.25v.1l-3,1.91,1.81,1,.07.1-2-1.05,3.11-2-3-2.3,3.3-1.62L8.12,33.9l3.65-1.13-2.5-2.84L13,29.1l-2-3.13,3.7-.37L13,22.15l3.87.12-1.1-3.4,3.79.32-.81-3.48,3.57,1.05L22.08,13l3.52,1.52.24-3.6,3.21,2,.59-3.67,2.94,2.33,1.13-3.45,2.59,2.67,1.47-3.26,2.33,2.84,1.84-3.08,2,3.13,2.18-2.82L47.54,11l2.69-2.59,1,3.62,2.94-2.2.64,3.65,3.11-1.76.12,3.79L61.49,14l-.29,3.89,3.7-1-1,3.55,3.6-.34-1.3,3.35,3.84.15-1.81,3.18,3.62.29L69.64,30l3.6,1.05-2.47,2.67,3.33,1.59-2.74,2.3v0ZM14.24,55.25l-1.79,3.33,3.67.2,0,.07L15,62.22l3.6-.42,0,.07-1,3.4,3.67-.91.07,0L21,68l3.43-1.37.07,0,0,3.62,3-1.86.07,0L28,72.19l2.94-2.33.07,0,1.08,3.57,2.52-2.64.1,0,1.44,3.4,2.2-2.72h.1l1.93,3.08,1.81-3h.1l2.4,2.79L46,71.23l.07,0,2.67,2.55,1.15-3.38.07,0,2.86,2.13.69-3.4.07,0,3,1.91.07-3.72.07,0,3.33,1.37-.24-3.48.07,0,3.57,1-.78-3.6.07-.07,3.48.76-1.1-3.43,0-.07,3.6.12L67.27,56.5l0-.07,3.79,0-2-3.4,0-.07,3.45-.78L70.4,49.3l0-.07,3.4-1.08-2.64-2.74,0-.07,3.18-1.49-2.84-2.3v-.1l2.84-1.64-.61-.42v0l.69.47-2.91,1.69,2.89,2.35-3.21,1.44,2.69,2.82-3.48,1.1,2.23,2.94-3.52.78,2.06,3.48-3.89,0,1.57,3.38-3.7-.12,1.15,3.52-3.57-.78L63.57,66,59.9,65l.24,3.55-3.4-1.4L56.67,71l-3.13-2-.69,3.48L49.91,70.3l-1.17,3.45L46,71.18l-1.35,3.28-2.45-2.84-1.84,3h0l-2-3.16-2.25,2.79-1.47-3.48-2.62,2.72L31,69.89l-3,2.4-.49-3.77-3,1.91,0-3.72-3.52,1.42.47-3.7-3.77.93,1-3.5-3.7.44,1.22-3.45-3.77-.2,1.84-3.43.07,0Z"/><polygon class="cls-2" points="26.34 51.94 27.36 37.74 30.23 36.91 38.09 48.78 35.64 49.47 34.17 47.14 28.79 48.59 28.59 51.35 26.34 51.94"/><polygon points="28.91 46.26 29.35 39.43 32.92 45.16 28.91 46.26"/><polygon class="cls-2" points="39.6 48.39 36.79 37.4 32.65 38.53 32.14 36.45 50.45 31.53 51.04 33.53 47.07 34.66 49.96 45.63 47.68 46.21 44.74 35.27 39.02 36.79 41.83 47.8 39.6 48.39"/><polygon class="cls-2" points="64.57 41.71 54.9 44.3 51.53 31.26 61.15 28.66 61.71 30.69 54.22 32.7 55.1 36.03 61.51 34.22 62.03 36.2 55.64 37.99 56.57 41.69 64.06 39.68 64.57 41.71"/><polygon points="9.86 44.84 7.78 46.66 10.6 47.66 9.86 44.84"/><polygon class="cls-4" points="9.84 44.94 7.88 46.66 10.52 47.59 10.6 47.66 7.78 46.66 9.86 44.84 9.84 44.94"/><polygon points="10.89 48.71 8.86 50.67 11.63 51.58 10.89 48.71"/><polygon class="cls-4" points="10.84 48.81 8.96 50.65 11.55 51.48 11.63 51.58 8.86 50.67 10.89 48.71 10.84 48.81"/><polygon points="11.92 52.68 10.33 54.9 12.55 55.08 11.92 52.68"/><polygon class="cls-4" points="11.89 52.8 10.43 54.85 12.48 55.03 12.55 55.08 10.33 54.9 11.92 52.68 11.89 52.8"/><rect class="cls-1" width="82" height="82" rx="12" ry="12"/></g></g></svg>