<svg xmlns="http://www.w3.org/2000/svg" xmlns:xlink="http://www.w3.org/1999/xlink" viewBox="0 0 380 380"><defs><style>.cls-1{fill:none;}.cls-2{opacity:0.1;}.cls-3{fill:#494949;}.cls-4{fill:url(#Cross_Lines);}.cls-5{clip-path:url(#clip-path);}.cls-6{fill:#fff;}</style><pattern id="Cross_Lines" data-name="Cross Lines" width="8" height="8" patternUnits="userSpaceOnUse" viewBox="0 0 8 8"><rect class="cls-1" width="8" height="8"/><g class="cls-2"><polygon points="6.59 0 6.59 0 8 1.42 8 0 6.59 0"/><polygon points="8 6.59 1.41 0 0 0 0 1.41 6.59 8 8 8 8 6.59"/><polygon points="1.41 8 0 6.59 0 8 1.41 8"/><polygon points="6.59 0 6.59 0 8 1.42 8 0 6.59 0"/><polygon points="8 6.59 1.41 0 0 0 0 1.41 6.59 8 8 8 8 6.59"/><polygon points="1.41 8 0 6.59 0 8 1.41 8"/></g></pattern><clipPath id="clip-path"><rect class="cls-1" x="37.01" y="44.26" width="305.99" height="305.99"/></clipPath></defs><title>avatar-about</title><g id="Layer_2" data-name="Layer 2"><g id="Layer_1-2" data-name="Layer 1"><circle class="cls-3" cx="190" cy="190" r="190"/><circle class="cls-4" cx="190" cy="190" r="190"/><g id="Artwork_7" data-name="Artwork 7"><g class="cls-5"><g class="cls-5"><path class="cls-6" d="M190,200.44a28.69,28.69,0,1,0-28.69-28.69A28.73,28.73,0,0,0,190,200.44m57.37,51c0-19.12-38.25-28.69-57.37-28.69s-57.37,9.56-57.37,28.69V261H247.37ZM279.25,82.51H100.75A25.57,25.57,0,0,0,75.26,108V286.5a25.57,25.57,0,0,0,25.5,25.5H279.25a25.57,25.57,0,0,0,25.5-25.5V108a25.57,25.57,0,0,0-25.5-25.5m0,204H100.75V108H279.25Z"/></g></g></g></g></g></svg>