<svg xmlns="http://www.w3.org/2000/svg" viewBox="0 0 159.47 159.51"><defs><style>.cls-1{fill:#f7ebe5;}.cls-2{fill:#e0867c;}.cls-3{fill:#a196a1;}.cls-4{fill:#eb8558;}.cls-5{fill:#fff;}.cls-6{fill:#7fad9a;}.cls-7{fill:#944b43;}.cls-8{fill:#766f94;}</style></defs><title>logo_ajules</title><g id="Layer_2" data-name="Layer 2"><g id="Layer_2-2" data-name="Layer 2"><circle class="cls-1" cx="78.05" cy="79.47" r="73.55" transform="translate(-28.35 46.51) rotate(-28.31)"/><path class="cls-2" d="M141.38,45a72.77,72.77,0,0,1-9.48,81.87A73,73,0,0,1,52,146.57,71.91,71.91,0,0,1,6.21,75.67,73,73,0,0,1,57.32,10.82c32.65-10,67.93,4.86,84.3,34.59,1.14,2.06,3.47.4,2.36-1.62C128.91,16.42,98.18.55,67.1,4.92,35.75,9.32,10.09,34,4.24,65.07A76.45,76.45,0,0,0,39.63,144c27,16.2,62.14,13.77,86.43-6.33,27.4-22.67,34.62-62.15,18.16-93.41C143.24,42.37,140.24,42.79,141.38,45Z"/><path class="cls-3" d="M48.55,100.13l-5.24-3.25s-.56-.65,5.08-9.89,9.85-12.4,9.85-12.4a34.7,34.7,0,0,1,2.15,3.53,27.42,27.42,0,0,1,1.72,3.82Z"/><path class="cls-3" d="M112.57,65.64l.17-6.16s-.24-.82-11.05-1.2-15.77,1.41-15.77,1.41a34.62,34.62,0,0,0,1.76,3.73A27.36,27.36,0,0,0,89.92,67Z"/><path class="cls-3" d="M62.1,130a25,25,0,0,1-1.88,5.45,15.56,15.56,0,0,1-3.39,4.75,8.9,8.9,0,0,1-5.46,2.41,12,12,0,0,1-5.9-1.27,11.24,11.24,0,0,1-4.6-4.06,13.68,13.68,0,0,1-2-5.82,23.45,23.45,0,0,1,.17-6,29.8,29.8,0,0,1,1.49-5.83l.62,1.7c-7.16-3.56-14.35-7.07-21.48-10.67l-.58-.29-.25-.61a56.69,56.69,0,0,1-2-5.86c-.56-2-1-3.94-1.41-5.94a75.52,75.52,0,0,1-1.4-12.14A65.62,65.62,0,0,1,17.85,61.6,60.71,60.71,0,0,1,30.9,40.74,80.68,80.68,0,0,1,50.43,26a83.72,83.72,0,0,1,22.85-8.65c2-.5,4-.71,6.08-1,1-.11,2.05-.18,3.08-.27.51,0,1-.09,1.54-.11l1.55,0A57.26,57.26,0,0,1,97.83,17a61.74,61.74,0,0,1,22.66,9.29,71.45,71.45,0,0,1,9.58,7.58c1.49,1.38,2.92,2.84,4.28,4.35A50.47,50.47,0,0,1,138.24,43l.41.58-.13.66c-1.68,8.53-3.3,17.07-5,25.6L133,68.7A31.7,31.7,0,0,1,139.83,75a16.8,16.8,0,0,1,2.4,4.07,9.64,9.64,0,0,1,.7,4.75,8.56,8.56,0,0,1-.63,2.33,14.51,14.51,0,0,1-1.18,2,10,10,0,0,1-3.43,3.15,8.1,8.1,0,0,1-4.51.84,10.91,10.91,0,0,1-4.31-1.34c2.7,1.24,6,1.46,8.49-.09a9.52,9.52,0,0,0,2.95-3.09,13.61,13.61,0,0,0,1-1.92,7.37,7.37,0,0,0,.41-2c.16-2.79-1.36-5.42-3.22-7.58a29.83,29.83,0,0,0-6.65-5.55l-.62-.39.11-.75c1.26-8.6,2.62-17.19,3.93-25.79l.28,1.25a62.11,62.11,0,0,0-7.93-8.33,67.57,67.57,0,0,0-9.27-6.91A66,66,0,0,0,108,24.5a57.14,57.14,0,0,0-11-3.07,52.63,52.63,0,0,0-11.38-.78l-1.43,0c-.48,0-.95.08-1.43.12-.95.09-1.9.15-2.85.26-1.88.32-3.79.52-5.64,1a78.83,78.83,0,0,0-21.47,8.29A77.79,77.79,0,0,0,34.44,44.11c-.68.67-1.27,1.42-1.91,2.12a27.63,27.63,0,0,0-1.83,2.19L29,50.69l-1.58,2.38a58.18,58.18,0,0,0-5.16,10.16,61.16,61.16,0,0,0-3.88,22.5,74.85,74.85,0,0,0,1,11.52c.32,1.91.7,3.8,1.18,5.68a53.91,53.91,0,0,0,1.65,5.47l-.83-.91c7,3.78,14,7.65,21.07,11.47l1.07.58L43,120.65a25.75,25.75,0,0,0-2,10.64,11.7,11.7,0,0,0,1.4,5.06A9.6,9.6,0,0,0,46.19,140a10.67,10.67,0,0,0,5.13,1.46,7.87,7.87,0,0,0,5-1.85,15.36,15.36,0,0,0,3.56-4.31A24.78,24.78,0,0,0,62.1,130Z"/><path class="cls-4" d="M62.85,131.71a154,154,0,0,0,18.72.52c8.44-.32,23.74-4,23.74-4a42.68,42.68,0,0,1-10.82-3.68A20.75,20.75,0,0,1,87,117a43.05,43.05,0,0,0,10-4.18,38,38,0,0,0,9.35-6.74,49.29,49.29,0,0,1,1.59,10.43c.18,5.44-2.64,11.72-2.64,11.72s9.75-11.55,13.3-17.69l8.9-15.39s-1.28-9-2.64-14.67-4.66-15.85-4.66-15.85-17.26-9.45-45.92,6S44.72,107,44.72,107s4.54,7.59,8,12.37S62.85,131.71,62.85,131.71Z"/><path class="cls-5" d="M116.24,82.84c-.68,7.17-7.57,15.31-13,13.95s-9-7-6.8-15.91,9.69-14.08,14.88-12C117.1,71.14,116.37,81.42,116.24,82.84Z"/><circle class="cls-5" cx="70.63" cy="101.3" r="18.24" transform="translate(-39.59 45.6) rotate(-28.31)"/><path class="cls-3" d="M86.74,92.62a19,19,0,0,1,1.67,14,17.88,17.88,0,0,1-8.93,11.1,18.48,18.48,0,0,1-7,2,19.47,19.47,0,0,1-7.16-.79,19.14,19.14,0,0,1-11-8.86A18.37,18.37,0,0,1,52.7,95.92a18.8,18.8,0,0,1,3.38-6.48,18.44,18.44,0,0,1,5.65-4.66A18.1,18.1,0,0,1,76,83.51,19.05,19.05,0,0,1,86.74,92.62Zm-.09,0a17.47,17.47,0,0,0-10.87-8.53,18.53,18.53,0,0,0-13.55,1.55,18,18,0,0,0-7.42,24.13,17.49,17.49,0,0,0,10.63,8.79A17.78,17.78,0,0,0,79.08,117a18.79,18.79,0,0,0,8.72-10.55,18,18,0,0,0,.85-7A17.77,17.77,0,0,0,86.65,92.67Z"/><circle class="cls-3" cx="106.5" cy="85.28" r="6.32" transform="translate(-27.71 60.69) rotate(-28.31)"/><circle class="cls-3" cx="111.17" cy="74.27" r="3.01" transform="translate(-21.93 61.59) rotate(-28.31)"/><ellipse class="cls-6" cx="70.41" cy="101.31" rx="13.2" ry="12.91" transform="translate(-39.62 45.5) rotate(-28.31)"/><path class="cls-7" d="M144.68,44c14.18,26.9,11.76,60.36-7.49,84.23-20.8,25.79-56.67,34.4-87,21.37C22,137.52,3.41,108.68,3.78,78.08,4.16,46.29,25,17.08,55.36,7.24c34.5-11.17,72.1,5.49,89.32,36.78.33.59,2.4-.18,2.17-.58-15.44-28.07-46.67-44.29-78.55-40C37,7.69,10.71,31.29,3.58,62.15-4,95,11.34,130,40.66,146.67a78.36,78.36,0,0,0,84.79-5.32c30.35-22.63,38.91-64.72,21.41-97.92C146.54,42.84,144.46,43.6,144.68,44Z"/><path class="cls-3" d="M148.69,42.54c14.58,27.64,12.27,61.86-7,86.7-21.75,28-60.52,37.37-92.8,23A80.86,80.86,0,0,1,1.4,77.88C1.91,45.13,23.18,15.1,54.34,4.54c36.25-12.3,76.18,5,94.35,38,.18.32,1.54-.22,1.45-.39C134.06,12.9,101.26-4.06,68.05.84,35.57,5.62,8.74,30.39,1.77,62.54c-7.32,33.78,8.64,69.52,38.68,86.63A80.89,80.89,0,0,0,127.66,144c31.75-23.36,40.69-67.31,22.48-101.83C150,41.83,148.6,42.36,148.69,42.54Z"/><rect class="cls-8" x="67.02" y="92.34" width="6.54" height="17.91" rx="1.45" ry="1.45" transform="translate(-37.66 41.72) rotate(-26.35)"/><rect class="cls-8" x="67.02" y="92.34" width="6.54" height="17.91" rx="1.45" ry="1.45" transform="translate(129.87 -6.65) rotate(63.65)"/></g></g></svg>