<svg xmlns="http://www.w3.org/2000/svg" xmlns:xlink="http://www.w3.org/1999/xlink" viewBox="0 0 201.75 201.75"><defs><style>.cls-1{fill:none;}.cls-2{opacity:0.1;}.cls-3{fill:#4d4d4d;}.cls-4{fill:url(#Cross_Lines);}</style><pattern id="Cross_Lines" data-name="Cross Lines" width="8" height="8" patternUnits="userSpaceOnUse" viewBox="0 0 8 8"><rect class="cls-1" width="8" height="8"/><g class="cls-2"><polygon points="6.59 0 6.59 0 8 1.42 8 0 6.59 0"/><polygon points="8 6.59 1.41 0 0 0 0 1.41 6.59 8 8 8 8 6.59"/><polygon points="1.41 8 0 6.59 0 8 1.41 8"/><polygon points="6.59 0 6.59 0 8 1.42 8 0 6.59 0"/><polygon points="8 6.59 1.41 0 0 0 0 1.41 6.59 8 8 8 8 6.59"/><polygon points="1.41 8 0 6.59 0 8 1.41 8"/></g></pattern></defs><title>logo-placeholder</title><g id="Layer_2" data-name="Layer 2"><g id="Layer_1-2" data-name="Layer 1"><circle class="cls-3" cx="100.87" cy="100.87" r="100.87"/><circle class="cls-4" cx="100.87" cy="100.87" r="100.87"/></g></g></svg>