<svg xmlns="http://www.w3.org/2000/svg" xmlns:xlink="http://www.w3.org/1999/xlink" viewBox="0 0 366 366"><defs><style>.cls-1{fill:none;}.cls-2{opacity:0.1;}.cls-3{fill:#3d3d3d;}.cls-4{fill:url(#Cross_Lines);}.cls-5{clip-path:url(#clip-path);}.cls-6{fill:#fff;}</style><pattern id="Cross_Lines" data-name="Cross Lines" width="8" height="8" patternUnits="userSpaceOnUse" viewBox="0 0 8 8"><rect class="cls-1" width="8" height="8"/><g class="cls-2"><polygon points="6.59 0 6.59 0 8 1.42 8 0 6.59 0"/><polygon points="8 6.59 1.41 0 0 0 0 1.41 6.59 8 8 8 8 6.59"/><polygon points="1.41 8 0 6.59 0 8 1.41 8"/><polygon points="6.59 0 6.59 0 8 1.42 8 0 6.59 0"/><polygon points="8 6.59 1.41 0 0 0 0 1.41 6.59 8 8 8 8 6.59"/><polygon points="1.41 8 0 6.59 0 8 1.41 8"/></g></pattern><clipPath id="clip-path"><rect class="cls-1" x="77.25" y="71.25" width="223.5" height="223.5"/></clipPath></defs><title>port-image2-placeholder</title><g id="Layer_2" data-name="Layer 2"><g id="Layer_1-2" data-name="Layer 1"><rect class="cls-3" width="366" height="366"/><rect class="cls-4" width="366" height="366"/><g id="Artwork_6" data-name="Artwork 6"><g class="cls-5"><g class="cls-5"><path class="cls-6" d="M272.81,248.19V117.81a18.68,18.68,0,0,0-18.62-18.62H123.81a18.68,18.68,0,0,0-18.62,18.63V248.19a18.68,18.68,0,0,0,18.63,18.63H254.19a18.68,18.68,0,0,0,18.63-18.62M156.41,197l23.28,28,32.59-42,41.91,55.88H123.81Z"/></g></g></g></g></g></svg>